#!OML:ASF I:\salsa\salsa 7_09\Patient 1\Session 1\dancerfemale.ASF
:FULLY-SPECIFIED
:DEGREES
1576
root 16.5545 15.5038 -2.75762 -913.006 1324.75 -159.795
lowerback 5.84198 -1.22071 -5.99979
upperback -4.87669 -2.61115 -3.74308
thorax -8.37368 -1.0941 -0.258091
lowerneck 12.4454 -12.4894 -13.5665
upperneck 0.969312 -18.5832 14.4454
head 0.931788 -9.75804 6.6046
rclavicle -7.16743e-014 -2.18663e-014
rhumerus -48.4472 -3.35517 -91.5709
rradius 103.131
rwrist -21.0935
rhand 14.3924 -316.009
rfingers 7.12502
rthumb 39.2794 18.5516
lclavicle -7.16743e-014 -2.18663e-014
lhumerus -39.7316 1.76873 66.905
lradius 107.347
lwrist -19.8427
lhand -13.5525 24.6758
lfingers 7.12502
lthumb 12.5605 -305.722
rfemur -28.2819 -5.19795 8.46926
rtibia 65.9398
rfoot -17.093 -13.0569
rtoes -15.7495
lfemur -10.0836 12.933 -35.1557
ltibia 34.7985
lfoot -30.0889 -2.68461
ltoes -21.9752
1577
root 16.731 15.5192 -2.82299 -912.761 1328.38 -160.106
lowerback 5.28153 -0.90365 -4.60714
upperback -4.78292 -1.98576 -3.60728
thorax -7.99155 -0.87095 -0.975793
lowerneck 11.644 -11.7906 -12.8626
upperneck 1.1721 -17.4625 13.9474
head 0.849742 -9.15618 6.35327
rclavicle 1.64619e-014 2.74323e-014
rhumerus -48.8798 -3.59103 -91.9328
rradius 104.895
rwrist -25.7436
rhand 15.445 -319.663
rfingers 7.12502
rthumb 40.2704 15.1934
lclavicle 1.64619e-014 2.74323e-014
lhumerus -37.8689 3.4399 67.4194
lradius 108.217
lwrist -18.301
lhand -15.118 25.1061
lfingers 7.12502
lthumb 11.0509 -305.205
rfemur -26.476 -5.44512 9.38276
rtibia 65.0403
rfoot -16.5611 -14.4674
rtoes -12.0396
lfemur -11.8389 14.1801 -34.6057
ltibia 35.7554
lfoot -30.4029 -0.854417
ltoes -21.6886
1578
root 16.8818 15.5533 -2.89965 -913.595 1331.32 -159.254
lowerback 5.12349 -0.897026 -4.21349
upperback -4.90716 -1.91349 -3.30331
thorax -8.03135 -0.845684 -0.885752
lowerneck 10.7985 -10.8923 -12.613
upperneck 1.71406 -16.1611 13.2866
head 0.887972 -8.46222 6.10328
rclavicle -2.67862e-014 -2.38542e-014
rhumerus -49.4779 -3.5016 -91.8447
rradius 106.28
rwrist -27.0277
rhand 16.0184 -320.63
rfingers 7.12502
rthumb 40.8094 14.3938
lclavicle -2.67862e-014 -2.38542e-014
lhumerus -36.8693 5.22534 68.2117
lradius 109.08
lwrist -17.1774
lhand -16.7492 25.9027
lfingers 7.12502
lthumb 9.47732 -304.33
rfemur -24.3321 -6.36348 9.54388
rtibia 63.6693
rfoot -16.7714 -15.1536
rtoes -9.83765
lfemur -13.2456 14.5306 -34.4784
ltibia 36.3695
lfoot -30.5041 1.18388
ltoes -19.9644
1579
root 17.0279 15.6008 -2.97031 -916.37 1334.29 -156.555
lowerback 4.98323 -0.865401 -4.06611
upperback -4.84304 -1.83259 -3.15013
thorax -7.87799 -0.811504 -0.817606
lowerneck 9.63395 -9.84995 -12.7139
upperneck 2.41127 -14.7002 13.1238
head 1.07574 -7.69315 6.03214
rclavicle 2.35187e-014 4.17448e-014
rhumerus -49.7052 -3.08751 -92.1601
rradius 107.305
rwrist -27.3555
rhand 15.3469 -321.312
rfingers 7.12502
rthumb 40.1781 13.5158
lclavicle 2.35187e-014 4.17448e-014
lhumerus -35.8214 6.86886 69.0071
lradius 109.858
lwrist -16.3843
lhand -18.4378 26.3784
lfingers 7.12502
lthumb 7.84781 -303.787
rfemur -21.9879 -6.48972 9.10652
rtibia 61.7426
rfoot -16.4803 -15.7992
rtoes -5.74645
lfemur -14.0664 14.141 -34.7273
ltibia 36.2784
lfoot -30.4622 3.93426
ltoes -17.8692
1580
root 17.1725 15.6501 -3.0313 -919.169 1337.11 -153.872
lowerback 4.62738 -0.961269 -3.38615
upperback -4.55478 -1.85514 -3.06956
thorax -7.3726 -0.862976 -1.11471
lowerneck 8.27835 -8.95599 -11.8994
upperneck 2.8293 -13.2759 12.3131
head 1.11796 -6.91909 5.63011
rclavicle -1.32875e-014 4.17448e-014
rhumerus -49.1525 -2.03513 -92.6823
rradius 107.972
rwrist -27.9279
rhand 15.552 -322.824
rfingers 7.12502
rthumb 40.371 12.0627
lclavicle -1.32875e-014 4.17448e-014
lhumerus -34.6111 8.37235 69.778
lradius 110.509
lwrist -15.8905
lhand -20.1137 26.4113
lfingers 7.12502
lthumb 6.23001 -303.7
rfemur -19.6255 -6.63213 8.72691
rtibia 59.3445
rfoot -15.8755 -16.013
rtoes -2.24789
lfemur -14.6356 13.4144 -34.6834
ltibia 35.8132
lfoot -30.3458 6.91397
ltoes -16.1013
